PathFileType	4	(X/Y/Z)	 s08c0202.trc
DataRate	CameraRate	NumFrames	NumMarkers	Units	OrigDataRate	OrigDataStartFrame	OrigNumFrames
200	200	4	50	mm	200	251	2000
Frame#	Time	racr			lacr			c7			jug			rlel			rdr			llel			ldr			s2			lic			ric			lasi			rasi			rpsi			lpsi			rgt			lgt			rth1			rth2			rth3			rth4			rlfc			rmfc			rsh1			rsh2			rsh3			rsh4			rlmal			rmmal			rcal			rtoe			rmt5			lth1			lth2			lth4			lth3			llfc			lmfc			llmal			lmmal			lcal			lmt5			lsh1			lsh2			lsh3			lsh4			ltoe			SBIKE			LBIKE			RBIKE			
		X1	Y1	Z1	X2	Y2	Z2	X3	Y3	Z3	X4	Y4	Z4	X5	Y5	Z5	X6	Y6	Z6	X7	Y7	Z7	X8	Y8	Z8	X9	Y9	Z9	X10	Y10	Z10	X11	Y11	Z11	X12	Y12	Z12	X13	Y13	Z13	X14	Y14	Z14	X15	Y15	Z15	X16	Y16	Z16	X17	Y17	Z17	X18	Y18	Z18	X19	Y19	Z19	X20	Y20	Z20	X21	Y21	Z21	X22	Y22	Z22	X23	Y23	Z23	X24	Y24	Z24	X25	Y25	Z25	X26	Y26	Z26	X27	Y27	Z27	X28	Y28	Z28	X29	Y29	Z29	X30	Y30	Z30	X31	Y31	Z31	X32	Y32	Z32	X33	Y33	Z33	X34	Y34	Z34	X35	Y35	Z35	X36	Y36	Z36	X37	Y37	Z37	X38	Y38	Z38	X39	Y39	Z39	X40	Y40	Z40	X41	Y41	Z41	X42	Y42	Z42	X43	Y43	Z43	X44	Y44	Z44	X45	Y45	Z45	X46	Y46	Z46	X47	Y47	Z47	X48	Y48	Z48	X49	Y49	Z49	X50	Y50	Z50	
251	1.2550	530.979067	1392.267167	-35.003820	534.001348	1411.089296	-382.770920	524.778176	1456.072456	-211.966161	498.531732	1301.992205	-208.295925	565.516745	1135.743450	43.610696	778.903088	931.889728	-35.746104	609.589047	1163.172271	-465.261300	786.146457	930.431913	-407.479744	-14.418348	1204.456575	-227.897391	157.391241	1170.121570	-368.826632	142.332269	1199.132310	-61.662238	175.608884	1117.588364	-335.521390	161.315695	1142.405521	-93.410301	16.720792	1244.794687	-176.269535	22.779591	1241.377809	-272.385605	58.102781	1113.122381	-18.495583	76.892674	1062.950073	-405.188515	200.104213	1028.381802	-11.698266	288.329394	1017.362508	-11.124265	357.010521	963.303238	-13.657232	302.259151	1049.274167	-25.136888	459.289491	898.264544	-33.767271	446.682661	893.137427	-145.689550	373.140468	800.930203	-10.177121	342.689920	719.047812	-36.456320	276.854329	664.679299	-44.712874	367.742915	709.933575	-67.314952	204.138658	572.923392	-60.853922	224.709371	594.265505	-147.267581	119.949298	553.433097	-107.033339	416.675075	516.001179	-96.689219	322.835352	493.986934	-32.553012	122.077210	931.549787	-421.415502	172.152859	859.680626	-416.901804	204.722058	871.619151	-404.351283	178.364489	770.890903	-413.340180	213.195736	648.925203	-387.336270	206.218892	624.041331	-284.205553	127.414545	239.724908	-393.970002	154.353152	258.665229	-309.542724	62.571900	215.595949	-355.955583	266.878403	149.300695	-414.400925	181.914575	525.974999	-417.040978	186.865586	441.588074	-400.341056	151.595854	360.938336	-405.017980	207.021738	441.348951	-366.858290	348.826540	175.638695	-344.066649	-188.220032	922.264343	-234.169174	18.428967	84.004035	-425.820871	11.473483	80.183051	-27.597481	
252	1.2600	531.057184	1392.261475	-34.989400	534.153959	1411.006318	-382.702355	524.841048	1455.875556	-211.896542	498.621391	1301.842451	-208.212171	565.537062	1135.676175	43.635074	778.877322	931.884050	-35.763146	609.392869	1163.003329	-465.352079	786.145422	930.464595	-407.506853	-14.406338	1204.462316	-227.907108	157.383129	1170.122159	-368.804844	142.291415	1199.123082	-61.721826	175.592277	1117.614991	-335.456555	161.320200	1142.463009	-93.450203	16.712943	1244.881073	-176.207155	22.762228	1241.386377	-272.426924	58.087774	1113.152307	-18.490599	76.904985	1062.955652	-405.176770	200.135146	1028.459057	-11.744195	288.388938	1017.394117	-11.113933	357.003787	963.330604	-13.671400	302.286607	1049.314291	-25.154798	459.304608	898.290259	-33.783011	446.667809	893.158344	-145.723438	373.174422	800.956739	-10.170040	343.547325	719.292007	-34.774843	276.949290	664.644315	-44.716924	367.850889	709.928044	-67.295157	204.271087	572.847351	-60.838693	224.834540	594.210157	-147.235862	120.102321	553.299289	-107.030572	416.842430	516.011977	-96.682336	322.983481	493.956899	-32.535637	122.108129	931.567429	-421.396126	172.194173	859.708941	-416.862530	204.755118	871.646094	-404.345557	178.433107	770.925027	-413.341114	213.258734	648.937407	-387.347350	206.295368	624.052465	-284.201064	127.278505	239.793381	-393.965308	154.260965	258.685267	-309.557423	62.411844	215.671987	-355.961224	266.729711	149.323230	-414.392905	181.937379	526.026734	-417.036216	186.835798	441.601175	-400.315461	151.524818	361.000672	-405.026356	206.999073	441.451601	-366.903523	348.677193	175.649700	-344.050916	-188.120546	922.269188	-234.068292	18.436797	83.981086	-425.826824	11.469076	80.164017	-27.606246	
253	1.2650	531.164239	1392.269498	-35.032920	534.983449	1411.510998	-384.413407	524.877881	1455.705879	-211.818857	498.828752	1301.727712	-208.080538	565.567441	1135.637266	43.669591	778.890157	931.871912	-35.806112	609.173578	1162.812959	-465.472689	786.143675	930.531556	-407.545890	-14.442381	1204.486529	-227.898353	157.386963	1170.134348	-368.842297	142.277523	1199.121461	-61.831490	175.543164	1117.659385	-335.411314	161.343701	1142.564696	-93.543618	16.692450	1244.894171	-176.186410	22.736997	1241.386443	-272.433063	58.120362	1113.166781	-18.482461	76.901157	1062.956223	-405.204160	200.176177	1028.533732	-11.815176	288.424274	1017.468266	-11.171469	357.034544	963.365457	-13.719076	302.349906	1049.375882	-25.177384	459.346539	898.361357	-33.824581	446.643252	893.142145	-145.715394	373.231975	800.959499	-10.199852	343.614498	719.271621	-34.812586	277.078105	664.612033	-44.714551	367.946577	709.931756	-67.264545	204.434049	572.788935	-60.818851	224.995521	594.124459	-147.219058	120.308814	553.194668	-107.064292	417.040599	516.015445	-96.666738	323.199371	493.912103	-32.527034	122.139972	931.576875	-421.378276	172.266338	859.733009	-416.844128	204.809269	871.680189	-404.323561	178.539301	770.949816	-413.330336	213.370590	649.018471	-387.328093	206.386711	624.071302	-284.184980	127.102966	239.888507	-393.935279	154.107599	258.731800	-309.543987	62.251571	215.745719	-355.937055	266.520002	149.372342	-414.387225	181.963108	526.063477	-417.026490	186.814608	441.633883	-400.314199	151.430716	361.083242	-405.017339	206.970482	441.456482	-366.887161	348.457032	175.654002	-344.062350	-187.993525	922.252097	-234.233535	18.436285	83.982794	-425.830858	11.505144	80.150396	-27.614879	
254	1.2700	531.334047	1392.290743	-35.069903	535.250532	1411.450432	-384.243533	524.902968	1455.510660	-211.715550	498.929904	1301.469824	-208.068797	565.631939	1135.597037	43.728800	778.887469	931.866183	-35.884294	608.880361	1162.589102	-465.650815	786.143867	930.609571	-407.627382	-14.463230	1204.475622	-227.932690	157.354422	1170.127704	-368.824326	142.155730	1199.157297	-61.968664	175.496210	1117.723834	-335.395165	161.340710	1142.765034	-93.640049	16.695689	1244.876027	-176.337308	22.704951	1241.392489	-272.472116	58.141094	1113.194791	-18.492073	76.884196	1062.953723	-405.237983	200.192753	1028.690812	-11.947431	288.458587	1017.574093	-11.228212	357.034914	963.442120	-13.743989	302.381910	1049.490664	-25.158403	459.356487	898.422938	-33.875985	446.644415	893.122941	-145.732207	373.278660	801.007217	-10.214858	342.959980	719.038289	-36.464567	277.192140	664.593123	-44.717009	368.061972	709.928428	-67.209381	204.620936	572.696084	-60.825047	225.231020	594.037334	-147.175066	120.505862	553.080908	-107.076862	417.261617	516.035834	-96.662319	323.462779	493.852628	-32.515980	122.187197	931.606290	-421.348600	172.305047	859.787997	-416.833715	204.886271	871.729072	-404.318360	178.641955	770.998569	-413.348437	213.479020	649.049273	-387.334949	206.468648	624.095236	-284.182755	126.894026	239.986105	-393.911367	153.876464	258.828578	-309.516937	62.003334	215.874622	-355.915657	266.302477	149.406112	-414.381639	181.986522	526.116125	-417.019899	186.780050	441.671061	-400.276955	151.313681	361.154868	-405.011190	206.934358	441.646976	-367.049063	348.216800	175.659398	-344.057363	-188.206251	922.272016	-234.144940	18.440915	84.043052	-425.862519	11.484060	80.159290	-27.599776	
